<svg version="1.1" viewBox="0.0 0.0 704.0 330.0" fill="none" stroke="none" stroke-linecap="square" stroke-miterlimit="10" xmlns:xlink="http://www.w3.org/1999/xlink" xmlns="http://www.w3.org/2000/svg"><clipPath id="p.0"><path d="m0 0l704.0 0l0 330.0l-704.0 0l0 -330.0z" clip-rule="nonzero"/></clipPath><g clip-path="url(#p.0)"><path fill="#000000" fill-opacity="0.0" d="m0 0l704.0 0l0 330.0l-704.0 0z" fill-rule="evenodd"/><path fill="#6d9eeb" d="m373.86353 29.286327l0 0c0 -6.589859 5.3421326 -11.931997 11.931976 -11.931997l138.40372 0c3.1645508 0 6.199524 1.2571182 8.437195 3.4948025c2.237732 2.2376823 3.494812 5.2726326 3.494812 8.437195l0 47.72656c0 6.589859 -5.342102 11.931999 -11.932007 11.931999l-138.40372 0l0 0c-6.5898438 0 -11.931976 -5.34214 -11.931976 -11.931999z" fill-rule="evenodd"/><path stroke="#6d9eeb" stroke-width="1.0" stroke-linejoin="round" stroke-linecap="butt" d="m373.86353 29.286327l0 0c0 -6.589859 5.3421326 -11.931997 11.931976 -11.931997l138.40372 0c3.1645508 0 6.199524 1.2571182 8.437195 3.4948025c2.237732 2.2376823 3.494812 5.2726326 3.494812 8.437195l0 47.72656c0 6.589859 -5.342102 11.931999 -11.932007 11.931999l-138.40372 0l0 0c-6.5898438 0 -11.931976 -5.34214 -11.931976 -11.931999z" fill-rule="evenodd"/><path fill="#ffffff" d="m396.15622 60.848354q-1.4375 0 -2.796875 -0.3125q-1.34375 -0.328125 -2.34375 -0.96875q-0.5 -0.328125 -0.609375 -0.796875q-0.09375 -0.46875 0.078125 -0.875q0.1875 -0.421875 0.578125 -0.578125q0.40625 -0.15625 0.90625 0.15625q0.9375 0.546875 1.984375 0.8125q1.046875 0.25 2.203125 0.25q1.6875 0 2.453125 -0.5625q0.765625 -0.5625 0.765625 -1.453125q0 -0.75 -0.546875 -1.171875q-0.546875 -0.4375 -1.859375 -0.71875l-2.34375 -0.484375q-4.015625 -0.859375 -4.015625 -4.109375q0 -1.40625 0.734375 -2.453125q0.75 -1.046875 2.078125 -1.625q1.328125 -0.578125 3.046875 -0.578125q1.28125 0 2.4375 0.328125q1.15625 0.3125 2.0625 0.9375q0.4375 0.296875 0.515625 0.734375q0.09375 0.4375 -0.109375 0.8125q-0.1875 0.359375 -0.609375 0.5q-0.40625 0.140625 -0.96875 -0.171875q-0.78125 -0.453125 -1.59375 -0.640625q-0.8125 -0.203125 -1.75 -0.203125q-1.46875 0 -2.3125 0.625q-0.828125 0.625 -0.828125 1.625q0 0.765625 0.515625 1.234375q0.515625 0.453125 1.75 0.703125l2.328125 0.484375q2.109375 0.453125 3.140625 1.421875q1.03125 0.953125 1.03125 2.546875q0 1.34375 -0.734375 2.375q-0.71875 1.015625 -2.046875 1.59375q-1.328125 0.5625 -3.140625 0.5625zm12.679565 0q-4.125 0 -4.125 -4.09375l0 -4.546875l-1.109375 0q-1.078125 0 -1.078125 -1.0q0 -1.0 1.078125 -1.0l1.109375 0l0 -1.953125q0 -1.34375 1.34375 -1.34375q1.3125 0 1.3125 1.34375l0 1.953125l2.265625 0q1.0625 0 1.0625 1.0q0 1.0 -1.0625 1.0l-2.265625 0l0 4.390625q0 1.03125 0.453125 1.546875q0.453125 0.5 1.453125 0.5q0.359375 0 0.625 -0.0625q0.28125 -0.0625 0.5 -0.09375q0.265625 -0.015625 0.421875 0.171875q0.171875 0.171875 0.171875 0.734375q0 0.421875 -0.140625 0.75q-0.125 0.328125 -0.5 0.46875q-0.265625 0.078125 -0.71875 0.15625q-0.453125 0.078125 -0.796875 0.078125zm6.846283 0q-1.125 0 -2.015625 -0.4375q-0.875 -0.4375 -1.375 -1.1875q-0.5 -0.75 -0.5 -1.6875q0 -1.15625 0.59375 -1.828125q0.59375 -0.671875 1.9375 -0.96875q1.34375 -0.296875 3.609375 -0.296875l0.75 0l0 -0.453125q0 -1.0625 -0.46875 -1.53125q-0.46875 -0.46875 -1.578125 -0.46875q-0.625 0 -1.34375 0.15625q-0.703125 0.140625 -1.5 0.5q-0.515625 0.25 -0.859375 0.0625q-0.328125 -0.1875 -0.453125 -0.578125q-0.109375 -0.390625 0.046875 -0.796875q0.15625 -0.40625 0.640625 -0.59375q0.984375 -0.40625 1.890625 -0.578125q0.90625 -0.171875 1.65625 -0.171875q2.28125 0 3.390625 1.0625q1.109375 1.046875 1.109375 3.265625l0 5.125q0 1.359375 -1.234375 1.359375q-1.265625 0 -1.265625 -1.359375l0 -0.46875q-0.359375 0.859375 -1.15625 1.375q-0.78125 0.5 -1.875 0.5zm0.5625 -1.84375q1.046875 0 1.734375 -0.71875q0.703125 -0.734375 0.703125 -1.84375l0 -0.46875l-0.734375 0q-2.0 0 -2.78125 0.3125q-0.78125 0.3125 -0.78125 1.125q0 0.703125 0.484375 1.15625q0.5 0.4375 1.375 0.4375zm12.447784 1.84375q-4.125 0 -4.125 -4.09375l0 -4.546875l-1.109375 0q-1.078125 0 -1.078125 -1.0q0 -1.0 1.078125 -1.0l1.109375 0l0 -1.953125q0 -1.34375 1.34375 -1.34375q1.3125 0 1.3125 1.34375l0 1.953125l2.265625 0q1.0625 0 1.0625 1.0q0 1.0 -1.0625 1.0l-2.265625 0l0 4.390625q0 1.03125 0.453125 1.546875q0.453125 0.5 1.453125 0.5q0.359375 0 0.625 -0.0625q0.28125 -0.0625 0.5 -0.09375q0.265625 -0.015625 0.421875 0.171875q0.171875 0.171875 0.171875 0.734375q0 0.421875 -0.140625 0.75q-0.125 0.328125 -0.5 0.46875q-0.265625 0.078125 -0.71875 0.15625q-0.453125 0.078125 -0.796875 0.078125zm8.4583435 0q-1.78125 0 -3.0625 -0.65625q-1.265625 -0.671875 -1.96875 -1.890625q-0.6875 -1.21875 -0.6875 -2.875q0 -1.625 0.671875 -2.828125q0.671875 -1.21875 1.84375 -1.90625q1.1875 -0.703125 2.703125 -0.703125q2.21875 0 3.5 1.40625q1.296875 1.40625 1.296875 3.84375q0 0.78125 -1.015625 0.78125l-6.4375 0q0.296875 2.796875 3.1875 2.796875q0.5625 0 1.25 -0.140625q0.703125 -0.140625 1.3125 -0.484375q0.5625 -0.3125 0.9375 -0.1875q0.390625 0.109375 0.546875 0.453125q0.15625 0.34375 0.03125 0.765625q-0.109375 0.40625 -0.59375 0.703125q-0.75 0.46875 -1.71875 0.703125q-0.96875 0.21875 -1.796875 0.21875zm-0.390625 -9.046875q-1.171875 0 -1.90625 0.734375q-0.71875 0.71875 -0.859375 1.953125l5.234375 0q-0.078125 -1.296875 -0.71875 -1.984375q-0.625 -0.703125 -1.75 -0.703125zm17.839844 9.0q-1.375 0 -1.375 -1.40625l0 -11.515625l-4.15625 0q-1.171875 0 -1.171875 -1.15625q0 -1.125 1.171875 -1.125l11.046875 0q1.171875 0 1.171875 1.125q0 1.15625 -1.171875 1.15625l-4.15625 0l0 11.515625q0 1.40625 -1.359375 1.40625zm7.6901855 0q-1.359375 0 -1.359375 -1.359375l0 -8.0625q0 -1.34375 1.296875 -1.34375q1.296875 0 1.296875 1.34375l0 0.65625q0.765625 -1.828125 3.28125 -2.046875q0.921875 -0.109375 1.03125 1.046875q0.109375 1.125 -1.109375 1.25l-0.46875 0.046875q-2.625 0.25 -2.625 2.6875l0 4.421875q0 1.359375 -1.34375 1.359375zm10.316467 0.046875q-1.125 0 -2.015625 -0.4375q-0.875 -0.4375 -1.375 -1.1875q-0.5 -0.75 -0.5 -1.6875q0 -1.15625 0.59375 -1.828125q0.59375 -0.671875 1.9375 -0.96875q1.34375 -0.296875 3.609375 -0.296875l0.75 0l0 -0.453125q0 -1.0625 -0.46875 -1.53125q-0.46875 -0.46875 -1.578125 -0.46875q-0.625 0 -1.34375 0.15625q-0.703125 0.140625 -1.5 0.5q-0.515625 0.25 -0.859375 0.0625q-0.328125 -0.1875 -0.453125 -0.578125q-0.109375 -0.390625 0.046875 -0.796875q0.15625 -0.40625 0.640625 -0.59375q0.984375 -0.40625 1.890625 -0.578125q0.90625 -0.171875 1.65625 -0.171875q2.28125 0 3.390625 1.0625q1.109375 1.046875 1.109375 3.265625l0 5.125q0 1.359375 -1.234375 1.359375q-1.265625 0 -1.265625 -1.359375l0 -0.46875q-0.359375 0.859375 -1.15625 1.375q-0.78125 0.5 -1.875 0.5zm0.5625 -1.84375q1.046875 0 1.734375 -0.71875q0.703125 -0.734375 0.703125 -1.84375l0 -0.46875l-0.734375 0q-2.0 0 -2.78125 0.3125q-0.78125 0.3125 -0.78125 1.125q0 0.703125 0.484375 1.15625q0.5 0.4375 1.375 0.4375zm12.494659 1.84375q-1.640625 0 -2.859375 -0.671875q-1.203125 -0.671875 -1.875 -1.90625q-0.65625 -1.25 -0.65625 -2.90625q0 -1.671875 0.65625 -2.875q0.671875 -1.203125 1.875 -1.84375q1.21875 -0.65625 2.859375 -0.65625q0.703125 0 1.515625 0.1875q0.828125 0.1875 1.5625 0.640625q0.421875 0.25 0.5 0.65625q0.078125 0.40625 -0.109375 0.75q-0.1875 0.34375 -0.546875 0.5q-0.34375 0.140625 -0.78125 -0.109375q-0.984375 -0.5625 -1.90625 -0.5625q-1.375 0 -2.140625 0.875q-0.75 0.859375 -0.75 2.453125q0 1.578125 0.75 2.484375q0.765625 0.90625 2.140625 0.90625q0.921875 0 1.90625 -0.53125q0.4375 -0.25 0.78125 -0.09375q0.34375 0.140625 0.484375 0.5q0.15625 0.34375 0.0625 0.734375q-0.078125 0.390625 -0.484375 0.65625q-0.703125 0.421875 -1.5 0.609375q-0.78125 0.203125 -1.484375 0.203125zm6.566925 -0.046875q-1.3125 0 -1.3125 -1.359375l0 -12.671875q0 -1.34375 1.3125 -1.34375q1.34375 0 1.34375 1.34375l0 7.859375l0.046875 0l3.515625 -3.703125q0.4375 -0.421875 0.75 -0.65625q0.328125 -0.234375 0.875 -0.234375q0.5625 0 0.84375 0.28125q0.28125 0.28125 0.28125 0.6875q0 0.40625 -0.375 0.8125l-3.203125 3.375l3.5625 3.84375q0.390625 0.40625 0.359375 0.828125q-0.03125 0.40625 -0.359375 0.671875q-0.3125 0.265625 -0.8125 0.265625q-0.59375 0 -0.953125 -0.234375q-0.34375 -0.234375 -0.765625 -0.703125l-3.71875 -3.890625l-0.046875 0l0 3.46875q0 1.359375 -1.34375 1.359375zm15.046692 0.046875q-1.78125 0 -3.0625 -0.65625q-1.265625 -0.671875 -1.96875 -1.890625q-0.6875 -1.21875 -0.6875 -2.875q0 -1.625 0.671875 -2.828125q0.671875 -1.21875 1.84375 -1.90625q1.1875 -0.703125 2.703125 -0.703125q2.21875 0 3.5 1.40625q1.296875 1.40625 1.296875 3.84375q0 0.78125 -1.015625 0.78125l-6.4375 0q0.296875 2.796875 3.1875 2.796875q0.5625 0 1.25 -0.140625q0.703125 -0.140625 1.3125 -0.484375q0.5625 -0.3125 0.9375 -0.1875q0.390625 0.109375 0.546875 0.453125q0.15625 0.34375 0.03125 0.765625q-0.109375 0.40625 -0.59375 0.703125q-0.75 0.46875 -1.71875 0.703125q-0.96875 0.21875 -1.796875 0.21875zm-0.390625 -9.046875q-1.171875 0 -1.90625 0.734375q-0.71875 0.71875 -0.859375 1.953125l5.234375 0q-0.078125 -1.296875 -0.71875 -1.984375q-0.625 -0.703125 -1.75 -0.703125zm8.169312 9.0q-1.359375 0 -1.359375 -1.359375l0 -8.0625q0 -1.34375 1.296875 -1.34375q1.296875 0 1.296875 1.34375l0 0.65625q0.765625 -1.828125 3.28125 -2.046875q0.921875 -0.109375 1.03125 1.046875q0.109375 1.125 -1.109375 1.25l-0.46875 0.046875q-2.625 0.25 -2.625 2.6875l0 4.421875q0 1.359375 -1.34375 1.359375z" fill-rule="nonzero"/><path fill="#6d9eeb" d="m536.1312 146.37294l0 0c0 -6.589859 5.342163 -11.931992 11.932007 -11.931992l138.40369 0c3.1646118 0 6.199524 1.2571106 8.437195 3.4947968c2.237732 2.2376862 3.494812 5.272629 3.494812 8.437195l0 47.726562c0 6.589859 -5.342102 11.931992 -11.932007 11.931992l-138.40369 0l0 0c-6.5898438 0 -11.932007 -5.3421326 -11.932007 -11.931992z" fill-rule="evenodd"/><path stroke="#6d9eeb" stroke-width="1.0" stroke-linejoin="round" stroke-linecap="butt" d="m536.1312 146.37294l0 0c0 -6.589859 5.342163 -11.931992 11.932007 -11.931992l138.40369 0c3.1646118 0 6.199524 1.2571106 8.437195 3.4947968c2.237732 2.2376862 3.494812 5.272629 3.494812 8.437195l0 47.726562c0 6.589859 -5.342102 11.931992 -11.932007 11.931992l-138.40369 0l0 0c-6.5898438 0 -11.932007 -5.3421326 -11.932007 -11.931992z" fill-rule="evenodd"/><path fill="#ffffff" d="m575.2699 180.12247q0.359375 0.578125 0.203125 1.03125q-0.15625 0.46875 -0.625 0.6875q-0.453125 0.21875 -0.984375 0.109375q-0.515625 -0.09375 -0.875 -0.671875l-1.46875 -2.375q-0.59375 -0.96875 -2.03125 -0.96875l0 0q-2.171875 0 -3.796875 -0.953125q-1.625 -0.96875 -2.515625 -2.703125q-0.890625 -1.75 -0.890625 -4.09375q0 -2.359375 0.890625 -4.078125q0.890625 -1.734375 2.515625 -2.6875q1.625 -0.953125 3.8125 -0.953125q2.203125 0 3.828125 0.953125q1.625 0.953125 2.515625 2.6875q0.890625 1.71875 0.890625 4.0625q0 2.5625 -1.0625 4.390625q-1.046875 1.828125 -2.90625 2.6875q0.46875 0.171875 0.84375 0.515625q0.375 0.34375 0.734375 0.90625l0.921875 1.453125zm-5.765625 -4.546875q2.078125 0 3.21875 -1.421875q1.15625 -1.421875 1.15625 -3.96875q0 -2.5625 -1.140625 -3.96875q-1.140625 -1.40625 -3.234375 -1.40625q-2.0625 0 -3.21875 1.40625q-1.140625 1.40625 -1.140625 3.96875q0 2.546875 1.140625 3.96875q1.15625 1.421875 3.21875 1.421875zm9.844543 2.3125q-0.75 0 -1.078125 -0.515625q-0.3125 -0.515625 0.03125 -1.234375l5.625 -12.484375q0.28125 -0.609375 0.671875 -0.875q0.390625 -0.265625 0.90625 -0.265625q0.5 0 0.890625 0.265625q0.390625 0.265625 0.671875 0.875l5.65625 12.484375q0.328125 0.75 0.03125 1.25q-0.296875 0.5 -1.015625 0.5q-0.59375 0 -0.9375 -0.28125q-0.328125 -0.296875 -0.578125 -0.890625l-1.0625 -2.46875l-7.34375 0l-1.046875 2.46875q-0.28125 0.609375 -0.578125 0.890625q-0.296875 0.28125 -0.84375 0.28125zm6.109375 -12.25l-2.703125 6.421875l5.46875 0l-2.71875 -6.421875l-0.046875 0zm16.663757 12.25q-1.234375 0 -1.234375 -1.28125l0 -12.8125q0 -1.28125 1.28125 -1.28125q0.53125 0 0.828125 0.203125q0.3125 0.203125 0.578125 0.6875l4.921875 9.109375l4.921875 -9.109375q0.265625 -0.484375 0.5625 -0.6875q0.296875 -0.203125 0.828125 -0.203125q1.234375 0 1.234375 1.28125l0 12.8125q0 1.28125 -1.234375 1.28125q-1.234375 0 -1.234375 -1.28125l0 -9.015625l-4.015625 7.3125q-0.203125 0.359375 -0.4375 0.53125q-0.234375 0.171875 -0.640625 0.171875q-0.40625 0 -0.671875 -0.171875q-0.25 -0.1875 -0.4375 -0.53125l-4.015625 -7.28125l0 8.984375q0 1.28125 -1.234375 1.28125zm21.731628 0.046875q-1.625 0 -2.8125 -0.65625q-1.1875 -0.671875 -1.859375 -1.890625q-0.65625 -1.234375 -0.65625 -2.890625q0 -1.671875 0.65625 -2.890625q0.671875 -1.21875 1.859375 -1.875q1.1875 -0.65625 2.8125 -0.65625q1.625 0 2.8125 0.65625q1.203125 0.65625 1.859375 1.875q0.65625 1.21875 0.65625 2.890625q0 1.65625 -0.65625 2.890625q-0.65625 1.21875 -1.859375 1.890625q-1.1875 0.65625 -2.8125 0.65625zm0 -2.03125q1.203125 0 1.921875 -0.859375q0.71875 -0.875 0.71875 -2.546875q0 -1.71875 -0.71875 -2.546875q-0.71875 -0.84375 -1.921875 -0.84375q-1.1875 0 -1.921875 0.84375q-0.71875 0.828125 -0.71875 2.546875q0 1.671875 0.71875 2.546875q0.734375 0.859375 1.921875 0.859375zm11.535034 2.03125q-1.359375 0 -2.390625 -0.65625q-1.03125 -0.671875 -1.609375 -1.890625q-0.578125 -1.234375 -0.578125 -2.890625q0 -1.6875 0.578125 -2.890625q0.578125 -1.21875 1.609375 -1.875q1.03125 -0.65625 2.390625 -0.65625q1.109375 0 2.0 0.5q0.90625 0.484375 1.359375 1.296875l0 -5.015625q0 -1.34375 1.3125 -1.34375q1.34375 0 1.34375 1.34375l0 12.671875q0 1.359375 -1.3125 1.359375q-1.328125 0 -1.328125 -1.359375l0 -0.453125q-0.453125 0.84375 -1.34375 1.359375q-0.890625 0.5 -2.03125 0.5zm0.75 -2.03125q1.203125 0 1.921875 -0.859375q0.71875 -0.875 0.71875 -2.546875q0 -1.71875 -0.71875 -2.546875q-0.71875 -0.84375 -1.921875 -0.84375q-1.1875 0 -1.921875 0.84375q-0.71875 0.828125 -0.71875 2.546875q0 1.671875 0.71875 2.546875q0.734375 0.859375 1.921875 0.859375zm11.812561 2.03125q-3.828125 0 -3.828125 -4.3125l0 -5.15625q0 -1.34375 1.3125 -1.34375q1.34375 0 1.34375 1.34375l0 5.203125q0 1.109375 0.453125 1.640625q0.453125 0.53125 1.421875 0.53125q1.078125 0 1.75 -0.734375q0.6875 -0.734375 0.6875 -1.953125l0 -4.6875q0 -1.34375 1.328125 -1.34375q1.34375 0 1.34375 1.34375l0 8.0625q0 1.359375 -1.3125 1.359375q-1.296875 0 -1.296875 -1.359375l0 -0.375q-1.046875 1.78125 -3.203125 1.78125zm12.145935 0q-3.5625 0 -3.5625 -4.0l0 -10.078125q0 -1.34375 1.3125 -1.34375q1.34375 0 1.34375 1.34375l0 9.953125q0 1.921875 1.609375 1.921875q0.171875 0 0.3125 0q0.15625 -0.015625 0.296875 -0.046875q0.296875 -0.03125 0.40625 0.171875q0.109375 0.203125 0.109375 0.8125q0 0.53125 -0.21875 0.828125q-0.203125 0.296875 -0.703125 0.375q-0.4375 0.0625 -0.90625 0.0625zm8.2751465 0q-1.78125 0 -3.0625 -0.65625q-1.265625 -0.671875 -1.96875 -1.890625q-0.6875 -1.21875 -0.6875 -2.875q0 -1.625 0.671875 -2.828125q0.671875 -1.21875 1.84375 -1.90625q1.1875 -0.703125 2.703125 -0.703125q2.21875 0 3.5 1.40625q1.296875 1.40625 1.296875 3.84375q0 0.78125 -1.015625 0.78125l-6.4375 0q0.296875 2.796875 3.1875 2.796875q0.5625 0 1.25 -0.140625q0.703125 -0.140625 1.3125 -0.484375q0.5625 -0.3125 0.9375 -0.1875q0.390625 0.109375 0.546875 0.453125q0.15625 0.34375 0.03125 0.765625q-0.109375 0.40625 -0.59375 0.703125q-0.75 0.46875 -1.71875 0.703125q-0.96875 0.21875 -1.796875 0.21875zm-0.390625 -9.046875q-1.171875 0 -1.90625 0.734375q-0.71875 0.71875 -0.859375 1.953125l5.234375 0q-0.078125 -1.296875 -0.71875 -1.984375q-0.625 -0.703125 -1.75 -0.703125z" fill-rule="nonzero"/><path fill="#f6b26b" d="m373.86334 251.52756l162.2677 0l0 71.590546l-162.2677 0z" fill-rule="evenodd"/><path stroke="#f6b26b" stroke-width="1.0" stroke-linejoin="round" stroke-linecap="butt" d="m373.86334 251.52756l162.2677 0l0 71.590546l-162.2677 0z" fill-rule="evenodd"/><path fill="#ffffff" d="m401.78674 281.9747q-1.359375 0 -1.359375 -1.40625l0 -12.59375q0 -1.375 1.359375 -1.375q1.375 0 1.375 1.375l0 5.453125l0.046875 0l6.109375 -6.15625q0.34375 -0.328125 0.6875 -0.5q0.34375 -0.171875 0.765625 -0.171875q0.625 0 0.890625 0.328125q0.265625 0.3125 0.203125 0.734375q-0.046875 0.421875 -0.40625 0.796875l-5.609375 5.53125l5.90625 6.0q0.453125 0.421875 0.46875 0.890625q0.015625 0.46875 -0.296875 0.78125q-0.296875 0.3125 -0.890625 0.3125q-0.515625 0 -0.828125 -0.203125q-0.3125 -0.21875 -0.71875 -0.625l-6.28125 -6.296875l-0.046875 0l0 5.71875q0 1.40625 -1.375 1.40625zm13.886383 0q-1.3125 0 -1.3125 -1.359375l0 -8.0625q0 -1.34375 1.296875 -1.34375q1.296875 0 1.296875 1.34375l0 0.4375q0.53125 -0.890625 1.4375 -1.359375q0.90625 -0.46875 2.046875 -0.46875q3.6875 0 3.6875 4.28125l0 5.171875q0 1.359375 -1.328125 1.359375q-1.34375 0 -1.34375 -1.359375l0 -5.046875q0 -1.203125 -0.453125 -1.75q-0.453125 -0.5625 -1.421875 -0.5625q-1.171875 0 -1.875 0.734375q-0.6875 0.734375 -0.6875 1.953125l0 4.671875q0 1.359375 -1.34375 1.359375zm15.91452 0.046875q-1.625 0 -2.8125 -0.65625q-1.1875 -0.671875 -1.859375 -1.890625q-0.65625 -1.234375 -0.65625 -2.890625q0 -1.671875 0.65625 -2.890625q0.671875 -1.21875 1.859375 -1.875q1.1875 -0.65625 2.8125 -0.65625q1.625 0 2.8125 0.65625q1.203125 0.65625 1.859375 1.875q0.65625 1.21875 0.65625 2.890625q0 1.65625 -0.65625 2.890625q-0.65625 1.21875 -1.859375 1.890625q-1.1875 0.65625 -2.8125 0.65625zm0 -2.03125q1.203125 0 1.921875 -0.859375q0.71875 -0.875 0.71875 -2.546875q0 -1.71875 -0.71875 -2.546875q-0.71875 -0.84375 -1.921875 -0.84375q-1.1875 0 -1.921875 0.84375q-0.71875 0.828125 -0.71875 2.546875q0 1.671875 0.71875 2.546875q0.734375 0.859375 1.921875 0.859375zm11.352966 1.984375q-1.109375 0 -1.546875 -1.109375l-3.078125 -7.890625q-0.28125 -0.75 0.015625 -1.25q0.3125 -0.515625 1.109375 -0.515625q0.46875 0 0.765625 0.21875q0.296875 0.21875 0.515625 0.84375l2.34375 6.421875l2.40625 -6.59375q0.34375 -0.890625 1.21875 -0.890625q0.890625 0 1.21875 0.890625l2.40625 6.65625l2.375 -6.546875q0.203125 -0.578125 0.53125 -0.78125q0.328125 -0.21875 0.734375 -0.21875q0.78125 0 1.015625 0.546875q0.234375 0.53125 -0.046875 1.21875l-3.078125 7.890625q-0.4375 1.109375 -1.53125 1.109375q-1.125 0 -1.53125 -1.109375l-2.1875 -5.78125l-2.125 5.765625q-0.40625 1.125 -1.53125 1.125zm17.724213 0.046875q-3.5625 0 -3.5625 -4.0l0 -10.078125q0 -1.34375 1.3125 -1.34375q1.34375 0 1.34375 1.34375l0 9.953125q0 1.921875 1.609375 1.921875q0.171875 0 0.3125 0q0.15625 -0.015625 0.296875 -0.046875q0.296875 -0.03125 0.40625 0.171875q0.109375 0.203125 0.109375 0.8125q0 0.53125 -0.21875 0.828125q-0.203125 0.296875 -0.703125 0.375q-0.4375 0.0625 -0.90625 0.0625zm8.2751465 0q-1.78125 0 -3.0625 -0.65625q-1.265625 -0.671875 -1.96875 -1.890625q-0.6875 -1.21875 -0.6875 -2.875q0 -1.625 0.671875 -2.828125q0.671875 -1.21875 1.84375 -1.90625q1.1875 -0.703125 2.703125 -0.703125q2.21875 0 3.5 1.40625q1.296875 1.40625 1.296875 3.84375q0 0.78125 -1.015625 0.78125l-6.4375 0q0.296875 2.796875 3.1875 2.796875q0.5625 0 1.25 -0.140625q0.703125 -0.140625 1.3125 -0.484375q0.5625 -0.3125 0.9375 -0.1875q0.390625 0.109375 0.546875 0.453125q0.15625 0.34375 0.03125 0.765625q-0.109375 0.40625 -0.59375 0.703125q-0.75 0.46875 -1.71875 0.703125q-0.96875 0.21875 -1.796875 0.21875zm-0.390625 -9.046875q-1.171875 0 -1.90625 0.734375q-0.71875 0.71875 -0.859375 1.953125l5.234375 0q-0.078125 -1.296875 -0.71875 -1.984375q-0.625 -0.703125 -1.75 -0.703125zm10.8098755 9.046875q-1.359375 0 -2.390625 -0.65625q-1.03125 -0.671875 -1.609375 -1.890625q-0.578125 -1.234375 -0.578125 -2.890625q0 -1.6875 0.578125 -2.890625q0.578125 -1.21875 1.609375 -1.875q1.03125 -0.65625 2.390625 -0.65625q1.109375 0 2.0 0.5q0.90625 0.484375 1.359375 1.296875l0 -5.015625q0 -1.34375 1.3125 -1.34375q1.34375 0 1.34375 1.34375l0 12.671875q0 1.359375 -1.3125 1.359375q-1.328125 0 -1.328125 -1.359375l0 -0.453125q-0.453125 0.84375 -1.34375 1.359375q-0.890625 0.5 -2.03125 0.5zm0.75 -2.03125q1.203125 0 1.921875 -0.859375q0.71875 -0.875 0.71875 -2.546875q0 -1.71875 -0.71875 -2.546875q-0.71875 -0.84375 -1.921875 -0.84375q-1.1875 0 -1.921875 0.84375q-0.71875 0.828125 -0.71875 2.546875q0 1.671875 0.71875 2.546875q0.734375 0.859375 1.921875 0.859375zm12.906311 5.859375q-1.15625 0 -2.234375 -0.21875q-1.078125 -0.203125 -1.953125 -0.65625q-0.5 -0.25 -0.609375 -0.640625q-0.09375 -0.390625 0.078125 -0.765625q0.171875 -0.359375 0.515625 -0.515625q0.359375 -0.15625 0.765625 0.03125q0.9375 0.46875 1.78125 0.609375q0.84375 0.140625 1.4375 0.140625q2.859375 0 2.859375 -2.75l0 -1.4375q-0.4375 0.875 -1.375 1.390625q-0.921875 0.515625 -2.0625 0.515625q-1.40625 0 -2.453125 -0.65625q-1.03125 -0.65625 -1.609375 -1.828125q-0.578125 -1.171875 -0.578125 -2.71875q0 -1.5625 0.578125 -2.71875q0.578125 -1.171875 1.609375 -1.8125q1.046875 -0.65625 2.453125 -0.65625q1.140625 0 2.046875 0.5q0.921875 0.484375 1.34375 1.328125l0 -0.4375q0 -0.671875 0.359375 -1.0q0.359375 -0.34375 0.96875 -0.34375q1.328125 0 1.328125 1.34375l0 8.203125q0 2.546875 -1.34375 3.8125q-1.34375 1.28125 -3.90625 1.28125zm-0.0625 -6.328125q1.234375 0 1.953125 -0.84375q0.734375 -0.859375 0.734375 -2.328125q0 -1.484375 -0.734375 -2.3125q-0.71875 -0.84375 -1.953125 -0.84375q-1.234375 0 -1.96875 0.84375q-0.71875 0.828125 -0.71875 2.3125q0 1.46875 0.71875 2.328125q0.734375 0.84375 1.96875 0.84375zm13.225983 2.5q-1.78125 0 -3.0625 -0.65625q-1.265625 -0.671875 -1.96875 -1.890625q-0.6875 -1.21875 -0.6875 -2.875q0 -1.625 0.671875 -2.828125q0.671875 -1.21875 1.84375 -1.90625q1.1875 -0.703125 2.703125 -0.703125q2.21875 0 3.5 1.40625q1.296875 1.40625 1.296875 3.84375q0 0.78125 -1.015625 0.78125l-6.4375 0q0.296875 2.796875 3.1875 2.796875q0.5625 0 1.25 -0.140625q0.703125 -0.140625 1.3125 -0.484375q0.5625 -0.3125 0.9375 -0.1875q0.390625 0.109375 0.546875 0.453125q0.15625 0.34375 0.03125 0.765625q-0.109375 0.40625 -0.59375 0.703125q-0.75 0.46875 -1.71875 0.703125q-0.96875 0.21875 -1.796875 0.21875zm-0.390625 -9.046875q-1.171875 0 -1.90625 0.734375q-0.71875 0.71875 -0.859375 1.953125l5.234375 0q-0.078125 -1.296875 -0.71875 -1.984375q-0.625 -0.703125 -1.75 -0.703125z" fill-rule="nonzero"/><path fill="#ffffff" d="m427.9775 308.02158q-1.4375 0 -2.796875 -0.3125q-1.34375 -0.328125 -2.34375 -0.96875q-0.5 -0.328125 -0.609375 -0.796875q-0.09375 -0.46875 0.078125 -0.875q0.1875 -0.421875 0.578125 -0.578125q0.40625 -0.15625 0.90625 0.15625q0.9375 0.546875 1.984375 0.8125q1.046875 0.25 2.203125 0.25q1.6875 0 2.453125 -0.5625q0.765625 -0.5625 0.765625 -1.453125q0 -0.75 -0.546875 -1.171875q-0.546875 -0.4375 -1.859375 -0.71875l-2.34375 -0.484375q-4.015625 -0.859375 -4.015625 -4.109375q0 -1.40625 0.734375 -2.453125q0.75 -1.046875 2.078125 -1.625q1.328125 -0.578125 3.046875 -0.578125q1.28125 0 2.4375 0.328125q1.15625 0.3125 2.0625 0.9375q0.4375 0.296875 0.515625 0.734375q0.09375 0.4375 -0.109375 0.8125q-0.1875 0.359375 -0.609375 0.5q-0.40625 0.140625 -0.96875 -0.171875q-0.78125 -0.453125 -1.59375 -0.640625q-0.8125 -0.203125 -1.75 -0.203125q-1.46875 0 -2.3125 0.625q-0.828125 0.625 -0.828125 1.625q0 0.765625 0.515625 1.234375q0.515625 0.453125 1.75 0.703125l2.328125 0.484375q2.109375 0.453125 3.140625 1.421875q1.03125 0.953125 1.03125 2.546875q0 1.34375 -0.734375 2.375q-0.71875 1.015625 -2.046875 1.59375q-1.328125 0.5625 -3.140625 0.5625zm12.770599 0q-1.625 0 -2.8125 -0.65625q-1.1875 -0.671875 -1.859375 -1.890625q-0.65625 -1.234375 -0.65625 -2.890625q0 -1.671875 0.65625 -2.890625q0.671875 -1.21875 1.859375 -1.875q1.1875 -0.65625 2.8125 -0.65625q1.625 0 2.8125 0.65625q1.203125 0.65625 1.859375 1.875q0.65625 1.21875 0.65625 2.890625q0 1.65625 -0.65625 2.890625q-0.65625 1.21875 -1.859375 1.890625q-1.1875 0.65625 -2.8125 0.65625zm0 -2.03125q1.203125 0 1.921875 -0.859375q0.71875 -0.875 0.71875 -2.546875q0 -1.71875 -0.71875 -2.546875q-0.71875 -0.84375 -1.921875 -0.84375q-1.1875 0 -1.921875 0.84375q-0.71875 0.828125 -0.71875 2.546875q0 1.671875 0.71875 2.546875q0.734375 0.859375 1.921875 0.859375zm11.30069 2.03125q-3.828125 0 -3.828125 -4.3125l0 -5.15625q0 -1.34375 1.3125 -1.34375q1.34375 0 1.34375 1.34375l0 5.203125q0 1.109375 0.453125 1.640625q0.453125 0.53125 1.421875 0.53125q1.078125 0 1.75 -0.734375q0.6875 -0.734375 0.6875 -1.953125l0 -4.6875q0 -1.34375 1.328125 -1.34375q1.34375 0 1.34375 1.34375l0 8.0625q0 1.359375 -1.3125 1.359375q-1.296875 0 -1.296875 -1.359375l0 -0.375q-1.046875 1.78125 -3.203125 1.78125zm9.94278 -0.046875q-1.359375 0 -1.359375 -1.359375l0 -8.0625q0 -1.34375 1.296875 -1.34375q1.296875 0 1.296875 1.34375l0 0.65625q0.765625 -1.828125 3.28125 -2.046875q0.921875 -0.109375 1.03125 1.046875q0.109375 1.125 -1.109375 1.25l-0.46875 0.046875q-2.625 0.25 -2.625 2.6875l0 4.421875q0 1.359375 -1.34375 1.359375zm11.643097 0.046875q-1.640625 0 -2.859375 -0.671875q-1.203125 -0.671875 -1.875 -1.90625q-0.65625 -1.25 -0.65625 -2.90625q0 -1.671875 0.65625 -2.875q0.671875 -1.203125 1.875 -1.84375q1.21875 -0.65625 2.859375 -0.65625q0.703125 0 1.515625 0.1875q0.828125 0.1875 1.5625 0.640625q0.421875 0.25 0.5 0.65625q0.078125 0.40625 -0.109375 0.75q-0.1875 0.34375 -0.546875 0.5q-0.34375 0.140625 -0.78125 -0.109375q-0.984375 -0.5625 -1.90625 -0.5625q-1.375 0 -2.140625 0.875q-0.75 0.859375 -0.75 2.453125q0 1.578125 0.75 2.484375q0.765625 0.90625 2.140625 0.90625q0.921875 0 1.90625 -0.53125q0.4375 -0.25 0.78125 -0.09375q0.34375 0.140625 0.484375 0.5q0.15625 0.34375 0.0625 0.734375q-0.078125 0.390625 -0.484375 0.65625q-0.703125 0.421875 -1.5 0.609375q-0.78125 0.203125 -1.484375 0.203125zm10.181702 0q-1.78125 0 -3.0625 -0.65625q-1.265625 -0.671875 -1.96875 -1.890625q-0.6875 -1.21875 -0.6875 -2.875q0 -1.625 0.671875 -2.828125q0.671875 -1.21875 1.84375 -1.90625q1.1875 -0.703125 2.703125 -0.703125q2.21875 0 3.5 1.40625q1.296875 1.40625 1.296875 3.84375q0 0.78125 -1.015625 0.78125l-6.4375 0q0.296875 2.796875 3.1875 2.796875q0.5625 0 1.25 -0.140625q0.703125 -0.140625 1.3125 -0.484375q0.5625 -0.3125 0.9375 -0.1875q0.390625 0.109375 0.546875 0.453125q0.15625 0.34375 0.03125 0.765625q-0.109375 0.40625 -0.59375 0.703125q-0.75 0.46875 -1.71875 0.703125q-0.96875 0.21875 -1.796875 0.21875zm-0.390625 -9.046875q-1.171875 0 -1.90625 0.734375q-0.71875 0.71875 -0.859375 1.953125l5.234375 0q-0.078125 -1.296875 -0.71875 -1.984375q-0.625 -0.703125 -1.75 -0.703125z" fill-rule="nonzero"/><path fill="#6d9eeb" d="m75.06157 153.16432l0 0c0 -6.6361237 5.5488434 -12.015747 12.3937 -12.015747l0 0c3.2870102 0 6.4393997 1.2659302 8.763672 3.5193176c2.3242645 2.2534027 3.6300278 5.3096466 3.6300278 8.496429l0 0c0 6.6361084 -5.548851 12.015747 -12.3937 12.015747l0 0c-6.8448563 0 -12.3937 -5.3796387 -12.3937 -12.015747z" fill-rule="evenodd"/><path stroke="#6d9eeb" stroke-width="1.0" stroke-linejoin="round" stroke-linecap="butt" d="m75.06157 153.16432l0 0c0 -6.6361237 5.5488434 -12.015747 12.3937 -12.015747l0 0c3.2870102 0 6.4393997 1.2659302 8.763672 3.5193176c2.3242645 2.2534027 3.6300278 5.3096466 3.6300278 8.496429l0 0c0 6.6361084 -5.548851 12.015747 -12.3937 12.015747l0 0c-6.8448563 0 -12.3937 -5.3796387 -12.3937 -12.015747z" fill-rule="evenodd"/><path fill="#6d9eeb" d="m79.894745 165.2124l15.0866165 0l0 0c3.5960846 0 7.0448837 1.4285431 9.5877 3.9713593c2.5428162 2.5428162 3.9713516 5.991623 3.9713516 9.5877075l0 13.5590515c0 1.9836426E-4 -1.5258789E-4 3.5095215E-4 -3.5095215E-4 3.5095215E-4l-42.20437 -3.5095215E-4l0 0c-1.9836426E-4 0 -3.5095215E-4 -1.6784668E-4 -3.5095215E-4 -3.5095215E-4l3.5095215E-4 -13.558701l0 0c0 -7.4884644 6.070595 -13.559067 13.5590515 -13.559067z" fill-rule="evenodd"/><path stroke="#6d9eeb" stroke-width="1.0" stroke-linejoin="round" stroke-linecap="butt" d="m79.894745 165.2124l15.0866165 0l0 0c3.5960846 0 7.0448837 1.4285431 9.5877 3.9713593c2.5428162 2.5428162 3.9713516 5.991623 3.9713516 9.5877075l0 13.5590515c0 1.9836426E-4 -1.5258789E-4 3.5095215E-4 -3.5095215E-4 3.5095215E-4l-42.20437 -3.5095215E-4l0 0c-1.9836426E-4 0 -3.5095215E-4 -1.6784668E-4 -3.5095215E-4 -3.5095215E-4l3.5095215E-4 -13.558701l0 0c0 -7.4884644 6.070595 -13.559067 13.5590515 -13.559067z" fill-rule="evenodd"/><path fill="#a4c2f4" d="m32.856674 158.3129l0 0c0 -6.6361237 5.548851 -12.015747 12.393703 -12.015747l0 0c3.287014 0 6.4393997 1.2659302 8.763668 3.5193176c2.3242683 2.2534027 3.6300316 5.3096466 3.6300316 8.496429l0 0c0 6.6361084 -5.548851 12.015747 -12.3937 12.015747l0 0c-6.8448524 0 -12.393703 -5.3796387 -12.393703 -12.015747z" fill-rule="evenodd"/><path stroke="#a4c2f4" stroke-width="1.0" stroke-linejoin="round" stroke-linecap="butt" d="m32.856674 158.3129l0 0c0 -6.6361237 5.548851 -12.015747 12.393703 -12.015747l0 0c3.287014 0 6.4393997 1.2659302 8.763668 3.5193176c2.3242683 2.2534027 3.6300316 5.3096466 3.6300316 8.496429l0 0c0 6.6361084 -5.548851 12.015747 -12.3937 12.015747l0 0c-6.8448524 0 -12.393703 -5.3796387 -12.393703 -12.015747z" fill-rule="evenodd"/><path fill="#a4c2f4" d="m37.689857 170.36098l15.086613 0l0 0c3.5960846 0 7.0448837 1.4285431 9.5877 3.9713593c2.5428123 2.5428162 3.9713554 5.9916077 3.9713554 9.587692l0 13.559067c0 1.8310547E-4 -1.6021729E-4 3.5095215E-4 -3.5095215E-4 3.5095215E-4l-42.204376 -3.5095215E-4l0 0c-1.9454956E-4 0 -3.5095215E-4 -1.6784668E-4 -3.5095215E-4 -3.5095215E-4l3.5095215E-4 -13.558716l0 0c0 -7.488449 6.0705967 -13.5590515 13.559057 -13.5590515z" fill-rule="evenodd"/><path stroke="#a4c2f4" stroke-width="1.0" stroke-linejoin="round" stroke-linecap="butt" d="m37.689857 170.36098l15.086613 0l0 0c3.5960846 0 7.0448837 1.4285431 9.5877 3.9713593c2.5428123 2.5428162 3.9713554 5.9916077 3.9713554 9.587692l0 13.559067c0 1.8310547E-4 -1.6021729E-4 3.5095215E-4 -3.5095215E-4 3.5095215E-4l-42.204376 -3.5095215E-4l0 0c-1.9454956E-4 0 -3.5095215E-4 -1.6784668E-4 -3.5095215E-4 -3.5095215E-4l3.5095215E-4 -13.558716l0 0c0 -7.488449 6.0705967 -13.5590515 13.559057 -13.5590515z" fill-rule="evenodd"/><path fill="#a4c2f4" d="m117.26646 160.15672l0 0c0 -6.6361084 5.548851 -12.015747 12.3937 -12.015747l0 0c3.2870178 0 6.4394073 1.2659454 8.763672 3.519333c2.3242645 2.2533875 3.6300354 5.3096313 3.6300354 8.496414l0 0c0 6.6361084 -5.5488586 12.015747 -12.393707 12.015747l0 0c-6.8448486 0 -12.3937 -5.3796387 -12.3937 -12.015747z" fill-rule="evenodd"/><path stroke="#a4c2f4" stroke-width="1.0" stroke-linejoin="round" stroke-linecap="butt" d="m117.26646 160.15672l0 0c0 -6.6361084 5.548851 -12.015747 12.3937 -12.015747l0 0c3.2870178 0 6.4394073 1.2659454 8.763672 3.519333c2.3242645 2.2533875 3.6300354 5.3096313 3.6300354 8.496414l0 0c0 6.6361084 -5.5488586 12.015747 -12.393707 12.015747l0 0c-6.8448486 0 -12.3937 -5.3796387 -12.3937 -12.015747z" fill-rule="evenodd"/><path fill="#a4c2f4" d="m122.09964 172.20482l15.086609 0l0 0c3.5960846 0 7.0448914 1.4285278 9.5877075 3.971344c2.5428162 2.5428162 3.971344 5.991623 3.971344 9.5877075l0 13.5590515c0 1.9836426E-4 -1.5258789E-4 3.5095215E-4 -3.5095215E-4 3.5095215E-4l-42.20437 -3.5095215E-4l0 0c-1.9073486E-4 0 -3.5095215E-4 -1.5258789E-4 -3.5095215E-4 -3.5095215E-4l3.5095215E-4 -13.558701l0 0c0 -7.4884644 6.070595 -13.5590515 13.559059 -13.5590515z" fill-rule="evenodd"/><path stroke="#a4c2f4" stroke-width="1.0" stroke-linejoin="round" stroke-linecap="butt" d="m122.09964 172.20482l15.086609 0l0 0c3.5960846 0 7.0448914 1.4285278 9.5877075 3.971344c2.5428162 2.5428162 3.971344 5.991623 3.971344 9.5877075l0 13.5590515c0 1.9836426E-4 -1.5258789E-4 3.5095215E-4 -3.5095215E-4 3.5095215E-4l-42.20437 -3.5095215E-4l0 0c-1.9073486E-4 0 -3.5095215E-4 -1.5258789E-4 -3.5095215E-4 -3.5095215E-4l3.5095215E-4 -13.558701l0 0c0 -7.4884644 6.070595 -13.5590515 13.559059 -13.5590515z" fill-rule="evenodd"/><path fill="#6d9eeb" d="m211.59586 146.37294l0 0c0 -6.589859 5.342148 -11.931992 11.932007 -11.931992l138.40372 0c3.1645508 0 6.199524 1.2571106 8.437195 3.4947968c2.237671 2.2376862 3.494812 5.272629 3.494812 8.437195l0 47.726562c0 6.589859 -5.3421326 11.931992 -11.932007 11.931992l-138.40372 0l0 0c-6.589859 0 -11.932007 -5.3421326 -11.932007 -11.931992z" fill-rule="evenodd"/><path stroke="#6d9eeb" stroke-width="1.0" stroke-linejoin="round" stroke-linecap="butt" d="m211.59586 146.37294l0 0c0 -6.589859 5.342148 -11.931992 11.932007 -11.931992l138.40372 0c3.1645508 0 6.199524 1.2571106 8.437195 3.4947968c2.237671 2.2376862 3.494812 5.272629 3.494812 8.437195l0 47.726562c0 6.589859 -5.3421326 11.931992 -11.932007 11.931992l-138.40372 0l0 0c-6.589859 0 -11.932007 -5.3421326 -11.932007 -11.931992z" fill-rule="evenodd"/><path fill="#ffffff" d="m242.31322 164.88809q-1.359375 0 -1.359375 -1.40625l0 -12.5625q0 -1.40625 1.359375 -1.40625q1.375 0 1.375 1.40625l0 12.5625q0 1.40625 -1.375 1.40625zm5.717682 0q-1.3125 0 -1.3125 -1.359375l0 -8.0625q0 -1.34375 1.296875 -1.34375q1.296875 0 1.296875 1.34375l0 0.4375q0.53125 -0.890625 1.4375 -1.359375q0.90625 -0.46875 2.046875 -0.46875q3.6875153 0 3.6875153 4.28125l0 5.171875q0 1.359375 -1.3281403 1.359375q-1.34375 0 -1.34375 -1.359375l0 -5.046875q0 -1.203125 -0.453125 -1.75q-0.453125 -0.5625 -1.421875 -0.5625q-1.171875 0 -1.875 0.734375q-0.6875 0.734375 -0.6875 1.953125l0 4.671875q0 1.359375 -1.34375 1.359375zm15.93013 0.046875q-4.125 0 -4.125 -4.09375l0 -4.546875l-1.109375 0q-1.078125 0 -1.078125 -1.0q0 -1.0 1.078125 -1.0l1.109375 0l0 -1.953125q0 -1.34375 1.34375 -1.34375q1.3125 0 1.3125 1.34375l0 1.953125l2.265625 0q1.0625 0 1.0625 1.0q0 1.0 -1.0625 1.0l-2.265625 0l0 4.390625q0 1.03125 0.453125 1.546875q0.453125 0.5 1.453125 0.5q0.359375 0 0.625 -0.0625q0.28125 -0.0625 0.5 -0.09375q0.265625 -0.015625 0.421875 0.171875q0.171875 0.171875 0.171875 0.734375q0 0.421875 -0.140625 0.75q-0.125 0.328125 -0.5 0.46875q-0.265625 0.078125 -0.71875 0.15625q-0.453125 0.078125 -0.796875 0.078125zm8.458374 0q-1.78125 0 -3.0625 -0.65625q-1.265625 -0.671875 -1.96875 -1.890625q-0.6875 -1.21875 -0.6875 -2.875q0 -1.625 0.671875 -2.828125q0.671875 -1.21875 1.84375 -1.90625q1.1875 -0.703125 2.703125 -0.703125q2.21875 0 3.5 1.40625q1.296875 1.40625 1.296875 3.84375q0 0.78125 -1.015625 0.78125l-6.4375 0q0.296875 2.796875 3.1875 2.796875q0.5625 0 1.25 -0.140625q0.703125 -0.140625 1.3125 -0.484375q0.5625 -0.3125 0.9375 -0.1875q0.390625 0.109375 0.546875 0.453125q0.15625 0.34375 0.03125 0.765625q-0.109375 0.40625 -0.59375 0.703125q-0.75 0.46875 -1.71875 0.703125q-0.96875 0.21875 -1.796875 0.21875zm-0.390625 -9.046875q-1.171875 0 -1.90625 0.734375q-0.71875 0.71875 -0.859375 1.953125l5.234375 0q-0.078125 -1.296875 -0.71875 -1.984375q-0.625 -0.703125 -1.75 -0.703125zm8.1692505 9.0q-1.359375 0 -1.359375 -1.359375l0 -8.0625q0 -1.34375 1.296875 -1.34375q1.296875 0 1.296875 1.34375l0 0.65625q0.765625 -1.828125 3.28125 -2.046875q0.921875 -0.109375 1.03125 1.046875q0.109375 1.125 -1.109375 1.25l-0.46875 0.046875q-2.625 0.25 -2.625 2.6875l0 4.421875q0 1.359375 -1.34375 1.359375zm10.316498 0.046875q-1.125 0 -2.015625 -0.4375q-0.875 -0.4375 -1.375 -1.1875q-0.5 -0.75 -0.5 -1.6875q0 -1.15625 0.59375 -1.828125q0.59375 -0.671875 1.9375 -0.96875q1.34375 -0.296875 3.609375 -0.296875l0.75 0l0 -0.453125q0 -1.0625 -0.46875 -1.53125q-0.46875 -0.46875 -1.578125 -0.46875q-0.625 0 -1.34375 0.15625q-0.703125 0.140625 -1.5 0.5q-0.515625 0.25 -0.859375 0.0625q-0.328125 -0.1875 -0.453125 -0.578125q-0.109375 -0.390625 0.046875 -0.796875q0.15625 -0.40625 0.640625 -0.59375q0.984375 -0.40625 1.890625 -0.578125q0.90625 -0.171875 1.65625 -0.171875q2.28125 0 3.390625 1.0625q1.109375 1.046875 1.109375 3.265625l0 5.125q0 1.359375 -1.234375 1.359375q-1.265625 0 -1.265625 -1.359375l0 -0.46875q-0.359375 0.859375 -1.15625 1.375q-0.78125 0.5 -1.875 0.5zm0.5625 -1.84375q1.046875 0 1.734375 -0.71875q0.703125 -0.734375 0.703125 -1.84375l0 -0.46875l-0.734375 0q-2.0 0 -2.78125 0.3125q-0.78125 0.3125 -0.78125 1.125q0 0.703125 0.484375 1.15625q0.5 0.4375 1.375 0.4375zm12.494659 1.84375q-1.640625 0 -2.859375 -0.671875q-1.203125 -0.671875 -1.875 -1.90625q-0.65625 -1.25 -0.65625 -2.90625q0 -1.671875 0.65625 -2.875q0.671875 -1.203125 1.875 -1.84375q1.21875 -0.65625 2.859375 -0.65625q0.703125 0 1.515625 0.1875q0.828125 0.1875 1.5625 0.640625q0.421875 0.25 0.5 0.65625q0.078125 0.40625 -0.109375 0.75q-0.1875 0.34375 -0.546875 0.5q-0.34375 0.140625 -0.78125 -0.109375q-0.984375 -0.5625 -1.90625 -0.5625q-1.375 0 -2.140625 0.875q-0.75 0.859375 -0.75 2.453125q0 1.578125 0.75 2.484375q0.765625 0.90625 2.140625 0.90625q0.921875 0 1.90625 -0.53125q0.4375 -0.25 0.78125 -0.09375q0.34375 0.140625 0.484375 0.5q0.15625 0.34375 0.0625 0.734375q-0.078125 0.390625 -0.484375 0.65625q-0.703125 0.421875 -1.5 0.609375q-0.78125 0.203125 -1.484375 0.203125zm10.062683 0q-4.125 0 -4.125 -4.09375l0 -4.546875l-1.109375 0q-1.078125 0 -1.078125 -1.0q0 -1.0 1.078125 -1.0l1.109375 0l0 -1.953125q0 -1.34375 1.34375 -1.34375q1.3125 0 1.3125 1.34375l0 1.953125l2.265625 0q1.0625 0 1.0625 1.0q0 1.0 -1.0625 1.0l-2.265625 0l0 4.390625q0 1.03125 0.453125 1.546875q0.453125 0.5 1.453125 0.5q0.359375 0 0.625 -0.0625q0.28125 -0.0625 0.5 -0.09375q0.265625 -0.015625 0.421875 0.171875q0.171875 0.171875 0.171875 0.734375q0 0.421875 -0.140625 0.75q-0.125 0.328125 -0.5 0.46875q-0.265625 0.078125 -0.71875 0.15625q-0.453125 0.078125 -0.796875 0.078125zm5.0142517 -12.78125q-0.734375 0 -1.15625 -0.375q-0.421875 -0.375 -0.421875 -1.03125q0 -0.6875 0.421875 -1.046875q0.421875 -0.359375 1.15625 -0.359375q1.578125 0 1.578125 1.40625q0 1.40625 -1.578125 1.40625zm0 12.71875q-0.640625 0 -0.984375 -0.390625q-0.328125 -0.390625 -0.328125 -1.0625l0 -7.828125q0 -1.453125 1.3125 -1.453125q1.34375 0 1.34375 1.453125l0 7.828125q0 0.671875 -0.34375 1.0625q-0.328125 0.390625 -1.0 0.390625zm8.87619 0.0625q-1.625 0 -2.8125 -0.65625q-1.1875 -0.671875 -1.859375 -1.890625q-0.65625 -1.234375 -0.65625 -2.890625q0 -1.671875 0.65625 -2.890625q0.671875 -1.21875 1.859375 -1.875q1.1875 -0.65625 2.8125 -0.65625q1.625 0 2.8125 0.65625q1.203125 0.65625 1.859375 1.875q0.65625 1.21875 0.65625 2.890625q0 1.65625 -0.65625 2.890625q-0.65625 1.21875 -1.859375 1.890625q-1.1875 0.65625 -2.8125 0.65625zm0 -2.03125q1.203125 0 1.921875 -0.859375q0.71875 -0.875 0.71875 -2.546875q0 -1.71875 -0.71875 -2.546875q-0.71875 -0.84375 -1.921875 -0.84375q-1.1875 0 -1.921875 0.84375q-0.71875 0.828125 -0.71875 2.546875q0 1.671875 0.71875 2.546875q0.734375 0.859375 1.921875 0.859375zm8.847534 1.984375q-1.3125 0 -1.3125 -1.359375l0 -8.0625q0 -1.34375 1.296875 -1.34375q1.296875 0 1.296875 1.34375l0 0.4375q0.53125 -0.890625 1.4375 -1.359375q0.90625 -0.46875 2.046875 -0.46875q3.6875 0 3.6875 4.28125l0 5.171875q0 1.359375 -1.328125 1.359375q-1.34375 0 -1.34375 -1.359375l0 -5.046875q0 -1.203125 -0.453125 -1.75q-0.453125 -0.5625 -1.421875 -0.5625q-1.171875 0 -1.875 0.734375q-0.6875 0.734375 -0.6875 1.953125l0 4.671875q0 1.359375 -1.34375 1.359375z" fill-rule="nonzero"/><path fill="#ffffff" d="m262.03958 190.71622q-1.453125 0 -1.453125 -1.453125l0 -12.140625q0 -1.4375 1.453125 -1.4375l7.609375 0q1.109375 0 1.109375 1.0625q0 1.109375 -1.109375 1.109375l-6.4375 0l0 4.140625l5.96875 0q1.109375 0 1.109375 1.078125q0 1.09375 -1.109375 1.09375l-5.96875 0l0 4.375l6.4375 0q1.109375 0 1.109375 1.078125q0 1.09375 -1.109375 1.09375l-7.609375 0zm12.342316 0.171875q-1.3125 0 -1.3125 -1.359375l0 -8.0625q0 -1.34375 1.296875 -1.34375q1.296875 0 1.296875 1.34375l0 0.4375q0.53125 -0.890625 1.4375 -1.359375q0.90625 -0.46875 2.046875 -0.46875q3.6875 0 3.6875 4.28125l0 5.171875q0 1.359375 -1.328125 1.359375q-1.34375 0 -1.34375 -1.359375l0 -5.046875q0 -1.203125 -0.453125 -1.75q-0.453125 -0.5625 -1.421875 -0.5625q-1.171875 0 -1.875 0.734375q-0.6875 0.734375 -0.6875 1.953125l0 4.671875q0 1.359375 -1.34375 1.359375zm16.023895 3.875q-1.15625 0 -2.234375 -0.21875q-1.078125 -0.203125 -1.953125 -0.65625q-0.5 -0.25 -0.609375 -0.640625q-0.09375 -0.390625 0.078125 -0.765625q0.171875 -0.359375 0.515625 -0.515625q0.359375 -0.15625 0.765625 0.03125q0.9375 0.46875 1.78125 0.609375q0.84375 0.140625 1.4375 0.140625q2.859375 0 2.859375 -2.75l0 -1.4375q-0.4375 0.875 -1.375 1.390625q-0.921875 0.515625 -2.0625 0.515625q-1.40625 0 -2.453125 -0.65625q-1.03125 -0.65625 -1.609375 -1.828125q-0.578125 -1.171875 -0.578125 -2.71875q0 -1.5625 0.578125 -2.71875q0.578125 -1.171875 1.609375 -1.8125q1.046875 -0.65625 2.453125 -0.65625q1.140625 0 2.046875 0.5q0.921875 0.484375 1.34375 1.328125l0 -0.4375q0 -0.671875 0.359375 -1.0q0.359375 -0.34375 0.96875 -0.34375q1.328125 0 1.328125 1.34375l0 8.203125q0 2.546875 -1.34375 3.8125q-1.34375 1.28125 -3.90625 1.28125zm-0.0625 -6.328125q1.234375 0 1.953125 -0.84375q0.734375 -0.859375 0.734375 -2.328125q0 -1.484375 -0.734375 -2.3125q-0.71875 -0.84375 -1.953125 -0.84375q-1.234375 0 -1.96875 0.84375q-0.71875 0.828125 -0.71875 2.3125q0 1.46875 0.71875 2.328125q0.734375 0.84375 1.96875 0.84375zm9.397858 -10.28125q-0.734375 0 -1.15625 -0.375q-0.421875 -0.375 -0.421875 -1.03125q0 -0.6875 0.421875 -1.046875q0.421875 -0.359375 1.15625 -0.359375q1.578125 0 1.578125 1.40625q0 1.40625 -1.578125 1.40625zm0 12.71875q-0.640625 0 -0.984375 -0.390625q-0.328125 -0.390625 -0.328125 -1.0625l0 -7.828125q0 -1.453125 1.3125 -1.453125q1.34375 0 1.34375 1.453125l0 7.828125q0 0.671875 -0.34375 1.0625q-0.328125 0.390625 -1.0 0.390625zm5.43869 0.015625q-1.3125 0 -1.3125 -1.359375l0 -8.0625q0 -1.34375 1.296875 -1.34375q1.296875 0 1.296875 1.34375l0 0.4375q0.53125 -0.890625 1.4375 -1.359375q0.90625 -0.46875 2.046875 -0.46875q3.6875 0 3.6875 4.28125l0 5.171875q0 1.359375 -1.328125 1.359375q-1.34375 0 -1.34375 -1.359375l0 -5.046875q0 -1.203125 -0.453125 -1.75q-0.453125 -0.5625 -1.421875 -0.5625q-1.171875 0 -1.875 0.734375q-0.6875 0.734375 -0.6875 1.953125l0 4.671875q0 1.359375 -1.34375 1.359375zm16.305115 0.046875q-1.78125 0 -3.0625 -0.65625q-1.265625 -0.671875 -1.96875 -1.890625q-0.6875 -1.21875 -0.6875 -2.875q0 -1.625 0.671875 -2.828125q0.671875 -1.21875 1.84375 -1.90625q1.1875 -0.703125 2.703125 -0.703125q2.21875 0 3.5 1.40625q1.296875 1.40625 1.296875 3.84375q0 0.78125 -1.015625 0.78125l-6.4375 0q0.296875 2.796875 3.1875 2.796875q0.5625 0 1.25 -0.140625q0.703125 -0.140625 1.3125 -0.484375q0.5625 -0.3125 0.9375 -0.1875q0.390625 0.109375 0.546875 0.453125q0.15625 0.34375 0.03125 0.765625q-0.109375 0.40625 -0.59375 0.703125q-0.75 0.46875 -1.71875 0.703125q-0.96875 0.21875 -1.796875 0.21875zm-0.390625 -9.046875q-1.171875 0 -1.90625 0.734375q-0.71875 0.71875 -0.859375 1.953125l5.234375 0q-0.078125 -1.296875 -0.71875 -1.984375q-0.625 -0.703125 -1.75 -0.703125z" fill-rule="nonzero"/><path fill="#000000" fill-opacity="0.0" d="m415.2257 91.02887c0 25.44619 -9.795258 43.923874 -19.590546 50.89238c-9.795258 6.968506 -19.590546 2.427826 -19.590546 4.855652" fill-rule="evenodd"/><path stroke="#000000" stroke-width="1.0" stroke-linejoin="round" stroke-linecap="butt" d="m415.2257 91.02887c0 25.446182 -9.795258 43.923874 -19.590546 50.89238c-4.897644 3.484253 -9.795258 4.091202 -13.468506 4.1305847l-0.16595459 3.0517578E-4" fill-rule="evenodd"/><path fill="#000000" stroke="#000000" stroke-width="1.0" stroke-linecap="butt" d="m381.80118 144.4125l-4.305359 2.1878052l4.704376 1.0914764z" fill-rule="evenodd"/><path fill="#000000" fill-opacity="0.0" d="m332.40945 132.43832c0 -25.44619 9.795258 -43.92388 19.590546 -50.89238c9.795288 -6.968506 19.590546 -2.427826 19.590546 -4.855652" fill-rule="evenodd"/><path stroke="#000000" stroke-width="1.0" stroke-linejoin="round" stroke-linecap="butt" d="m332.40945 132.43832c0 -25.44619 9.795258 -43.92388 19.590546 -50.89238c4.897644 -3.484253 9.795288 -4.0912094 13.468506 -4.1305847l0.16595459 -3.2043457E-4" fill-rule="evenodd"/><path fill="#000000" stroke="#000000" stroke-width="1.0" stroke-linecap="butt" d="m365.834 79.05468l4.3053284 -2.1878052l-4.704376 -1.0914688z" fill-rule="evenodd"/><path fill="#000000" fill-opacity="0.0" d="m538.4042 76.69029c0 2.8542862 10.0 -1.2166214 20.0 5.7085724c10.0 6.9252014 20.0 24.846504 20.0 49.692993" fill-rule="evenodd"/><path stroke="#000000" stroke-width="1.0" stroke-linejoin="round" stroke-linecap="butt" d="m538.4042 76.69029c0 2.8542862 10.0 -1.2166214 20.0 5.7085724c5.0 3.4626007 10.0 9.674225 13.75 18.126007c1.875 4.2258987 3.4375 9.011833 4.53125 14.294197c0.546875 2.6411896 0.9765625 5.406479 1.2695312 8.287926c0.07324219 0.7203598 0.13800049 1.4479904 0.19384766 2.182747l0.056030273 0.8054352" fill-rule="evenodd"/><path fill="#000000" stroke="#000000" stroke-width="1.0" stroke-linecap="butt" d="m576.554 126.15006l1.8016357 4.4807053l1.5 -4.590477z" fill-rule="evenodd"/><path fill="#000000" fill-opacity="0.0" d="m532.60895 146.53018c0 -2.175888 -10.0 2.57341 -20.0 -4.3517914c-10.0000305 -6.9252014 -20.00003 -25.524895 -20.00003 -51.04978" fill-rule="evenodd"/><path stroke="#000000" stroke-width="1.0" stroke-linejoin="round" stroke-linecap="butt" d="m532.60895 146.53018c0 -2.175888 -10.0 2.5733948 -20.0 -4.3517914c-5.0000305 -3.4626007 -10.0000305 -9.843826 -13.7500305 -18.55001c-1.875 -4.3530884 -3.4375 -9.287422 -4.53125 -14.728783c-0.546875 -2.7206879 -0.976532 -5.5681305 -1.2695007 -8.533043c-0.073272705 -0.7412338 -0.13796997 -1.4898148 -0.19381714 -2.2455826l-0.067352295 -0.99531555" fill-rule="evenodd"/><path fill="#000000" stroke="#000000" stroke-width="1.0" stroke-linecap="butt" d="m494.4479 97.07389l-1.7931519 -4.4841003l-1.5086975 4.587639z" fill-rule="evenodd"/><path fill="#000000" fill-opacity="0.0" d="m577.99475 208.38058c0 25.446182 -9.795288 43.923874 -19.590576 50.892365c-9.795227 6.968506 -19.590515 2.427826 -19.590515 4.855652" fill-rule="evenodd"/><path stroke="#000000" stroke-width="1.0" stroke-linejoin="round" stroke-linecap="butt" d="m577.99475 208.38058c0 25.446182 -9.795288 43.92386 -19.590576 50.892365c-4.897583 3.484253 -9.795227 4.091217 -13.468506 4.1305847l-0.16595459 3.0517578E-4" fill-rule="evenodd"/><path fill="#000000" stroke="#000000" stroke-width="1.0" stroke-linecap="butt" d="m544.5702 261.76422l-4.305359 2.1878052l4.7044067 1.0914612z" fill-rule="evenodd"/><path fill="#000000" fill-opacity="0.0" d="m493.01837 248.20473c0 -25.446198 9.795288 -43.923874 19.590576 -50.89238c9.795227 -6.968506 19.590515 -2.427826 19.590515 -4.855652" fill-rule="evenodd"/><path stroke="#000000" stroke-width="1.0" stroke-linejoin="round" stroke-linecap="butt" d="m493.01837 248.20473c0 -25.446198 9.795288 -43.923874 19.590576 -50.892365c4.897644 -3.484253 9.795227 -4.091217 13.468506 -4.1306l0.16595459 -3.0517578E-4" fill-rule="evenodd"/><path fill="#000000" stroke="#000000" stroke-width="1.0" stroke-linecap="butt" d="m526.44293 194.82109l4.305359 -2.1878052l-4.7044067 -1.0914764z" fill-rule="evenodd"/><path fill="#000000" fill-opacity="0.0" d="m157.93176 183.37796l47.779526 0.5354309" fill-rule="evenodd"/><path stroke="#000000" stroke-width="1.0" stroke-linejoin="round" stroke-linecap="butt" d="m157.93176 183.37796l41.779892 0.46818542" fill-rule="evenodd"/><path fill="#000000" stroke="#000000" stroke-width="1.0" stroke-linecap="butt" d="m199.69316 185.49779l4.55632 -1.6007843l-4.5193024 -1.7024841z" fill-rule="evenodd"/><path fill="#000000" fill-opacity="0.0" d="m205.71129 158.04462l-47.779526 0.5354309" fill-rule="evenodd"/><path stroke="#000000" stroke-width="1.0" stroke-linejoin="round" stroke-linecap="butt" d="m205.71129 158.04462l-41.779907 0.46820068" fill-rule="evenodd"/><path fill="#000000" stroke="#000000" stroke-width="1.0" stroke-linecap="butt" d="m163.91287 156.86119l-4.5193024 1.7024841l4.55632 1.600769z" fill-rule="evenodd"/></g></svg>